<svg width="149" height="54" viewBox="0 0 149 54" fill="none" xmlns="http://www.w3.org/2000/svg">
<path fill-rule="evenodd" clip-rule="evenodd" d="M16.5168 7.68139C19.7095 1.78051 28.1329 1.73567 31.4084 7.54369L31.4865 7.68139L34.2922 12.8747L32.0364 16.3787L32.0256 16.3933C31.9553 16.5062 31.883 16.6198 31.8127 16.7302L27.9543 9.59154C26.255 6.45178 21.7502 6.45167 20.051 9.59154L9.87619 28.404C10.9297 28.1523 12.1114 27.9869 13.4348 27.9441H13.5002L13.4973 27.9392C16.8204 27.9392 19.6647 29.1466 22.1545 30.7956C21.2635 31.9326 20.3995 32.9669 19.5637 33.9031C17.6738 32.7059 15.721 31.9628 13.5324 31.9578C10.114 32.0732 8.21357 33.1799 7.19455 34.0935C6.66752 34.5653 6.33647 35.0229 6.14572 35.3367C6.05058 35.4944 5.99031 35.6146 5.96018 35.6824C5.9452 35.7173 5.93541 35.7378 5.93283 35.7429C4.71274 38.5941 6.79308 41.8616 9.98655 41.864V41.8708C16.6715 41.8657 23.9438 32.4784 33.509 17.3328L35.2239 14.6013V14.5994L36.591 17.1287L45.4192 33.4538C48.4559 39.066 44.3871 45.8826 38.0119 45.8826H38.01V45.8806C35.2642 45.8806 32.8941 44.779 30.8235 43.3484C28.911 42.0282 27.0865 40.3062 25.3723 38.6999C26.2181 37.7436 27.0736 36.7141 27.9446 35.6072V35.6101C29.7842 37.3293 31.4182 38.8801 33.1047 40.0447C34.8165 41.2269 36.3886 41.865 38.01 41.865V41.8669H38.0119C41.3501 41.8669 43.4767 38.3001 41.8879 35.366L34.9514 22.5359C25.1603 37.7101 18.0615 45.8884 9.98069 45.8884V45.8796C3.60856 45.8758 -0.454838 39.0616 2.58127 33.4509L16.5168 7.68139Z" fill="#7C3AED"/>
<mask id="path-2-outside-1_21824_140980" maskUnits="userSpaceOnUse" x="51.2019" y="5.73975" width="96" height="48" fill="#7C3AED">
<rect fill="white" x="51.2019" y="5.73975" width="96" height="48"/>
<path d="M124.312 15.9634C124.501 15.7764 124.806 15.7764 124.995 15.9634L126.476 17.4263C126.569 17.5175 126.621 17.6422 126.621 17.772V20.2515C126.621 20.4241 126.761 20.5638 126.933 20.564C127.039 20.564 127.138 20.5107 127.197 20.4224C127.487 19.9856 127.869 19.4459 128.345 18.8042C128.886 18.0796 129.657 17.4361 130.658 16.8726C131.67 16.2975 133.038 16.0093 134.763 16.0093C136.995 16.0093 138.962 16.5675 140.664 17.6831C142.366 18.7987 143.695 20.38 144.649 22.4272C145.604 24.4745 146.081 26.89 146.081 29.6733C146.081 32.4797 145.604 34.9124 144.649 36.9712C143.695 39.0184 142.372 40.6058 140.681 41.7329C138.991 42.8485 137.041 43.4067 134.833 43.4067C133.131 43.4067 131.768 43.1246 130.744 42.561C129.72 41.986 128.933 41.3363 128.381 40.6118C127.868 39.9278 127.463 39.3527 127.169 38.8872C127.128 38.8225 127.057 38.7828 126.98 38.7827C126.858 38.7827 126.759 38.882 126.759 39.0044V51.3696C126.758 51.5023 126.704 51.6296 126.608 51.7212L125.058 53.2007C124.871 53.3797 124.575 53.3796 124.387 53.2007L122.838 51.7212C122.742 51.6296 122.687 51.5023 122.687 51.3696V17.772C122.687 17.6422 122.739 17.5175 122.831 17.4263L124.312 15.9634ZM107.885 16.0093C108.737 16.0093 109.714 16.1128 110.818 16.3198C111.934 16.5154 113.01 16.9243 114.045 17.5454C115.091 18.1665 115.959 19.1036 116.649 20.3569C117.339 21.6106 117.684 23.2902 117.684 25.395V42.6108C117.684 42.7641 117.612 42.9088 117.489 43.0005L115.939 44.1577C115.767 44.2862 115.53 44.2862 115.358 44.1577L113.808 43.0005C113.686 42.9088 113.613 42.7641 113.613 42.6108V39.3931C113.613 39.323 113.556 39.2662 113.486 39.2661C113.437 39.2661 113.393 39.2939 113.371 39.3374C113.092 39.8918 112.643 40.4835 112.026 41.1118C111.382 41.7674 110.524 42.3256 109.455 42.7856C108.385 43.2456 107.08 43.4751 105.539 43.4751C103.86 43.4751 102.335 43.1594 100.967 42.5269C99.5979 41.8828 98.5109 40.9562 97.7058 39.7485C96.9009 38.5295 96.4988 37.0575 96.4988 35.3325C96.4988 33.8143 96.7972 32.5833 97.3953 31.6401C97.9934 30.6855 98.7931 29.9376 99.7937 29.397C100.794 28.8565 101.899 28.4545 103.106 28.1899C104.325 27.9139 105.55 27.6947 106.781 27.5337C108.391 27.3267 109.696 27.1714 110.697 27.0679C111.709 26.9529 112.446 26.7631 112.906 26.4985C113.377 26.2339 113.613 25.774 113.613 25.1187V24.981C113.613 23.2789 113.147 21.9563 112.216 21.0132C111.295 20.0701 109.898 19.5982 108.023 19.5981C106.079 19.5981 104.555 20.0234 103.451 20.8745C102.498 21.609 101.79 22.3864 101.325 23.2065C101.201 23.425 100.941 23.536 100.705 23.4517L97.7439 22.394C97.4804 22.2997 97.3498 22.0021 97.4705 21.7495C98.1331 20.3638 98.9828 19.2672 100.018 18.4595C101.18 17.551 102.445 16.9186 103.813 16.562C105.193 16.194 106.551 16.0093 107.885 16.0093ZM84.3142 10.0825C84.5018 9.90345 84.7973 9.90374 84.9851 10.0825L86.5359 11.562C86.6318 11.6536 86.6862 11.7809 86.6863 11.9136V16.355H91.8591C92.1273 16.3551 92.3445 16.5721 92.3445 16.8403V19.3188C92.3445 19.5871 92.1273 19.8051 91.8591 19.8052H86.6863V35.2632C86.6863 36.4133 86.8527 37.276 87.1863 37.8511C87.5313 38.4147 87.9687 38.7942 88.4978 38.9897C89.0383 39.1737 89.6078 39.2661 90.2058 39.2661C90.6541 39.2661 91.0219 39.2427 91.3093 39.1968C91.3888 39.1809 91.4642 39.166 91.5349 39.1519C91.7933 39.1002 92.0461 39.264 92.1042 39.521L92.7341 42.3032C92.7876 42.54 92.6582 42.7803 92.4246 42.8462C92.2107 42.9065 91.9595 42.9666 91.6716 43.0269C91.1772 43.1418 90.5506 43.1997 89.7917 43.1997C88.6416 43.1997 87.5141 42.9521 86.4099 42.4575C85.3174 41.963 84.4089 41.2097 83.6843 40.1978C82.9713 39.1857 82.6141 37.9088 82.614 36.3677V19.8052H79.0974C78.8292 19.8051 78.6121 19.5871 78.6121 19.3188V16.8403C78.6121 16.5721 78.8292 16.3551 79.0974 16.355H82.614V11.9136C82.6141 11.7809 82.6684 11.6536 82.7644 11.562L84.3142 10.0825ZM56.5408 16.354C56.8091 16.354 57.0271 16.572 57.0271 16.8403V42.3687C57.027 42.6369 56.809 42.854 56.5408 42.854H53.4412C53.1729 42.854 52.955 42.6369 52.9548 42.3687V16.8403C52.9548 16.572 53.1728 16.354 53.4412 16.354H56.5408ZM63.6804 15.7202C63.8696 15.5334 64.1738 15.5334 64.363 15.7202L65.8445 17.1831C65.9368 17.2743 65.9879 17.3991 65.988 17.5288V20.1948C65.9882 20.2845 66.0614 20.3569 66.1511 20.3569C66.2191 20.3569 66.2797 20.3147 66.3044 20.2515C66.795 18.989 67.6558 17.96 68.8865 17.1655C70.1517 16.3489 71.5785 15.9409 73.1658 15.9409C73.4648 15.9409 73.8385 15.946 74.2869 15.9575C74.5059 15.9631 74.699 15.9706 74.866 15.979C75.1151 15.9915 75.3042 16.1993 75.3044 16.4487V19.5278C75.3044 19.8439 75.0047 20.0899 74.6921 20.0435C74.5912 20.0284 74.4792 20.0118 74.3562 19.9946C73.8731 19.9141 73.3606 19.8745 72.8201 19.8745C71.5321 19.8746 70.3819 20.1445 69.3699 20.6851C68.3693 21.2141 67.5756 21.95 66.989 22.8931C66.414 23.8246 66.1268 24.8885 66.1267 26.0845V42.3687C66.1266 42.6369 65.9087 42.854 65.6404 42.854H62.5408C62.2725 42.854 62.0555 42.6369 62.0554 42.3687V17.5288C62.0555 17.3991 62.1067 17.2743 62.199 17.1831L63.6804 15.7202ZM113.613 30.8237C113.613 30.3875 112.893 29.9819 112.474 30.105C111.899 30.266 111.232 30.4091 110.473 30.5356C109.726 30.6507 108.995 30.7542 108.282 30.8462C107.58 30.9267 107.011 30.9957 106.574 31.0532C105.516 31.1912 104.526 31.4155 103.606 31.7261C102.698 32.0251 101.962 32.4798 101.398 33.0894C100.846 33.6874 100.57 34.5044 100.57 35.5396C100.57 36.9541 101.094 38.024 102.14 38.7485C103.198 39.4615 104.538 39.8179 106.16 39.8179C107.77 39.8179 109.127 39.5012 110.231 38.8687C111.347 38.2361 112.187 37.4201 112.751 36.4194C113.326 35.4189 113.613 34.3663 113.613 33.2622V30.8237ZM134.281 19.6675C132.625 19.6675 131.232 20.0866 130.105 20.9263C128.978 21.7544 128.128 22.9164 127.552 24.4116C126.977 25.8952 126.689 27.6259 126.689 29.604C126.689 31.6052 126.983 33.3712 127.569 34.9009C128.156 36.4191 129.013 37.6095 130.14 38.4722C131.268 39.3232 132.648 39.7485 134.281 39.7485C135.983 39.7485 137.403 39.2999 138.542 38.4028C139.692 37.4942 140.555 36.2753 141.13 34.7456C141.716 33.2044 142.01 31.4903 142.01 29.604C142.009 27.741 141.722 26.0619 141.147 24.5669C140.584 23.0603 139.727 21.8697 138.577 20.9956C137.438 20.1101 136.006 19.6676 134.281 19.6675ZM54.6199 6.88232C54.8096 6.6927 55.1167 6.69263 55.3064 6.88232L57.5818 9.15771C57.7715 9.34744 57.7715 9.65549 57.5818 9.84521L55.3064 12.1206C55.1167 12.3102 54.8096 12.3101 54.6199 12.1206L52.3435 9.84521C52.1538 9.65551 52.1539 9.34745 52.3435 9.15771L54.6199 6.88232Z"/>
</mask>
<path d="M124.312 15.9634C124.501 15.7764 124.806 15.7764 124.995 15.9634L126.476 17.4263C126.569 17.5175 126.621 17.6422 126.621 17.772V20.2515C126.621 20.4241 126.761 20.5638 126.933 20.564C127.039 20.564 127.138 20.5107 127.197 20.4224C127.487 19.9856 127.869 19.4459 128.345 18.8042C128.886 18.0796 129.657 17.4361 130.658 16.8726C131.67 16.2975 133.038 16.0093 134.763 16.0093C136.995 16.0093 138.962 16.5675 140.664 17.6831C142.366 18.7987 143.695 20.38 144.649 22.4272C145.604 24.4745 146.081 26.89 146.081 29.6733C146.081 32.4797 145.604 34.9124 144.649 36.9712C143.695 39.0184 142.372 40.6058 140.681 41.7329C138.991 42.8485 137.041 43.4067 134.833 43.4067C133.131 43.4067 131.768 43.1246 130.744 42.561C129.72 41.986 128.933 41.3363 128.381 40.6118C127.868 39.9278 127.463 39.3527 127.169 38.8872C127.128 38.8225 127.057 38.7828 126.98 38.7827C126.858 38.7827 126.759 38.882 126.759 39.0044V51.3696C126.758 51.5023 126.704 51.6296 126.608 51.7212L125.058 53.2007C124.871 53.3797 124.575 53.3796 124.387 53.2007L122.838 51.7212C122.742 51.6296 122.687 51.5023 122.687 51.3696V17.772C122.687 17.6422 122.739 17.5175 122.831 17.4263L124.312 15.9634ZM107.885 16.0093C108.737 16.0093 109.714 16.1128 110.818 16.3198C111.934 16.5154 113.01 16.9243 114.045 17.5454C115.091 18.1665 115.959 19.1036 116.649 20.3569C117.339 21.6106 117.684 23.2902 117.684 25.395V42.6108C117.684 42.7641 117.612 42.9088 117.489 43.0005L115.939 44.1577C115.767 44.2862 115.53 44.2862 115.358 44.1577L113.808 43.0005C113.686 42.9088 113.613 42.7641 113.613 42.6108V39.3931C113.613 39.323 113.556 39.2662 113.486 39.2661C113.437 39.2661 113.393 39.2939 113.371 39.3374C113.092 39.8918 112.643 40.4835 112.026 41.1118C111.382 41.7674 110.524 42.3256 109.455 42.7856C108.385 43.2456 107.08 43.4751 105.539 43.4751C103.86 43.4751 102.335 43.1594 100.967 42.5269C99.5979 41.8828 98.5109 40.9562 97.7058 39.7485C96.9009 38.5295 96.4988 37.0575 96.4988 35.3325C96.4988 33.8143 96.7972 32.5833 97.3953 31.6401C97.9934 30.6855 98.7931 29.9376 99.7937 29.397C100.794 28.8565 101.899 28.4545 103.106 28.1899C104.325 27.9139 105.55 27.6947 106.781 27.5337C108.391 27.3267 109.696 27.1714 110.697 27.0679C111.709 26.9529 112.446 26.7631 112.906 26.4985C113.377 26.2339 113.613 25.774 113.613 25.1187V24.981C113.613 23.2789 113.147 21.9563 112.216 21.0132C111.295 20.0701 109.898 19.5982 108.023 19.5981C106.079 19.5981 104.555 20.0234 103.451 20.8745C102.498 21.609 101.79 22.3864 101.325 23.2065C101.201 23.425 100.941 23.536 100.705 23.4517L97.7439 22.394C97.4804 22.2997 97.3498 22.0021 97.4705 21.7495C98.1331 20.3638 98.9828 19.2672 100.018 18.4595C101.18 17.551 102.445 16.9186 103.813 16.562C105.193 16.194 106.551 16.0093 107.885 16.0093ZM84.3142 10.0825C84.5018 9.90345 84.7973 9.90374 84.9851 10.0825L86.5359 11.562C86.6318 11.6536 86.6862 11.7809 86.6863 11.9136V16.355H91.8591C92.1273 16.3551 92.3445 16.5721 92.3445 16.8403V19.3188C92.3445 19.5871 92.1273 19.8051 91.8591 19.8052H86.6863V35.2632C86.6863 36.4133 86.8527 37.276 87.1863 37.8511C87.5313 38.4147 87.9687 38.7942 88.4978 38.9897C89.0383 39.1737 89.6078 39.2661 90.2058 39.2661C90.6541 39.2661 91.0219 39.2427 91.3093 39.1968C91.3888 39.1809 91.4642 39.166 91.5349 39.1519C91.7933 39.1002 92.0461 39.264 92.1042 39.521L92.7341 42.3032C92.7876 42.54 92.6582 42.7803 92.4246 42.8462C92.2107 42.9065 91.9595 42.9666 91.6716 43.0269C91.1772 43.1418 90.5506 43.1997 89.7917 43.1997C88.6416 43.1997 87.5141 42.9521 86.4099 42.4575C85.3174 41.963 84.4089 41.2097 83.6843 40.1978C82.9713 39.1857 82.6141 37.9088 82.614 36.3677V19.8052H79.0974C78.8292 19.8051 78.6121 19.5871 78.6121 19.3188V16.8403C78.6121 16.5721 78.8292 16.3551 79.0974 16.355H82.614V11.9136C82.6141 11.7809 82.6684 11.6536 82.7644 11.562L84.3142 10.0825ZM56.5408 16.354C56.8091 16.354 57.0271 16.572 57.0271 16.8403V42.3687C57.027 42.6369 56.809 42.854 56.5408 42.854H53.4412C53.1729 42.854 52.955 42.6369 52.9548 42.3687V16.8403C52.9548 16.572 53.1728 16.354 53.4412 16.354H56.5408ZM63.6804 15.7202C63.8696 15.5334 64.1738 15.5334 64.363 15.7202L65.8445 17.1831C65.9368 17.2743 65.9879 17.3991 65.988 17.5288V20.1948C65.9882 20.2845 66.0614 20.3569 66.1511 20.3569C66.2191 20.3569 66.2797 20.3147 66.3044 20.2515C66.795 18.989 67.6558 17.96 68.8865 17.1655C70.1517 16.3489 71.5785 15.9409 73.1658 15.9409C73.4648 15.9409 73.8385 15.946 74.2869 15.9575C74.5059 15.9631 74.699 15.9706 74.866 15.979C75.1151 15.9915 75.3042 16.1993 75.3044 16.4487V19.5278C75.3044 19.8439 75.0047 20.0899 74.6921 20.0435C74.5912 20.0284 74.4792 20.0118 74.3562 19.9946C73.8731 19.9141 73.3606 19.8745 72.8201 19.8745C71.5321 19.8746 70.3819 20.1445 69.3699 20.6851C68.3693 21.2141 67.5756 21.95 66.989 22.8931C66.414 23.8246 66.1268 24.8885 66.1267 26.0845V42.3687C66.1266 42.6369 65.9087 42.854 65.6404 42.854H62.5408C62.2725 42.854 62.0555 42.6369 62.0554 42.3687V17.5288C62.0555 17.3991 62.1067 17.2743 62.199 17.1831L63.6804 15.7202ZM113.613 30.8237C113.613 30.3875 112.893 29.9819 112.474 30.105C111.899 30.266 111.232 30.4091 110.473 30.5356C109.726 30.6507 108.995 30.7542 108.282 30.8462C107.58 30.9267 107.011 30.9957 106.574 31.0532C105.516 31.1912 104.526 31.4155 103.606 31.7261C102.698 32.0251 101.962 32.4798 101.398 33.0894C100.846 33.6874 100.57 34.5044 100.57 35.5396C100.57 36.9541 101.094 38.024 102.14 38.7485C103.198 39.4615 104.538 39.8179 106.16 39.8179C107.77 39.8179 109.127 39.5012 110.231 38.8687C111.347 38.2361 112.187 37.4201 112.751 36.4194C113.326 35.4189 113.613 34.3663 113.613 33.2622V30.8237ZM134.281 19.6675C132.625 19.6675 131.232 20.0866 130.105 20.9263C128.978 21.7544 128.128 22.9164 127.552 24.4116C126.977 25.8952 126.689 27.6259 126.689 29.604C126.689 31.6052 126.983 33.3712 127.569 34.9009C128.156 36.4191 129.013 37.6095 130.14 38.4722C131.268 39.3232 132.648 39.7485 134.281 39.7485C135.983 39.7485 137.403 39.2999 138.542 38.4028C139.692 37.4942 140.555 36.2753 141.13 34.7456C141.716 33.2044 142.01 31.4903 142.01 29.604C142.009 27.741 141.722 26.0619 141.147 24.5669C140.584 23.0603 139.727 21.8697 138.577 20.9956C137.438 20.1101 136.006 19.6676 134.281 19.6675ZM54.6199 6.88232C54.8096 6.6927 55.1167 6.69263 55.3064 6.88232L57.5818 9.15771C57.7715 9.34744 57.7715 9.65549 57.5818 9.84521L55.3064 12.1206C55.1167 12.3102 54.8096 12.3101 54.6199 12.1206L52.3435 9.84521C52.1538 9.65551 52.1539 9.34745 52.3435 9.15771L54.6199 6.88232Z" fill="#7C3AED"/>
<path d="M124.312 15.9634L124.568 16.2226L124.568 16.2226L124.312 15.9634ZM124.995 15.9634L124.739 16.2226L124.739 16.2226L124.995 15.9634ZM126.476 17.4263L126.732 17.1671L126.732 17.167L126.476 17.4263ZM126.621 17.772H126.985V17.7719L126.621 17.772ZM126.621 20.2515H126.256V20.252L126.621 20.2515ZM126.933 20.564L126.933 20.9283H126.933V20.564ZM127.197 20.4224L127.501 20.6238L127.501 20.6238L127.197 20.4224ZM128.345 18.8042L128.053 18.5863L128.053 18.5871L128.345 18.8042ZM130.658 16.8726L130.837 17.19L130.838 17.1894L130.658 16.8726ZM134.763 16.0093V15.6449H134.763L134.763 16.0093ZM140.664 17.6831L140.864 17.3784L140.864 17.3784L140.664 17.6831ZM144.649 22.4272L144.979 22.2733L144.979 22.2733L144.649 22.4272ZM146.081 29.6733H146.445V29.6733L146.081 29.6733ZM144.649 36.9712L144.979 37.1252L144.98 37.1245L144.649 36.9712ZM140.681 41.7329L140.882 42.037L140.884 42.0361L140.681 41.7329ZM134.833 43.4067V43.7711V43.7711V43.4067ZM130.744 42.561L130.565 42.8787L130.568 42.8802L130.744 42.561ZM128.381 40.6118L128.089 40.8304L128.091 40.8327L128.381 40.6118ZM127.169 38.8872L127.477 38.6924L127.476 38.6921L127.169 38.8872ZM126.98 38.7827L126.98 38.4183H126.98V38.7827ZM126.759 51.3696L127.123 51.3698V51.3696H126.759ZM126.608 51.7212L126.357 51.4576L126.357 51.4576L126.608 51.7212ZM125.058 53.2007L125.31 53.4643L125.31 53.4642L125.058 53.2007ZM124.387 53.2007L124.136 53.4642L124.136 53.4645L124.387 53.2007ZM122.838 51.7212L123.089 51.4576L123.089 51.4576L122.838 51.7212ZM122.687 51.3696H122.323V51.3698L122.687 51.3696ZM122.687 17.772L122.323 17.7719V17.772H122.687ZM122.831 17.4263L122.575 17.167L122.575 17.1672L122.831 17.4263ZM107.885 16.0093L107.886 15.6449H107.885V16.0093ZM110.818 16.3198L110.751 16.678L110.755 16.6787L110.818 16.3198ZM114.045 17.5454L113.857 17.8579L113.859 17.8587L114.045 17.5454ZM116.649 20.3569L116.968 20.1812L116.968 20.1812L116.649 20.3569ZM117.684 42.6108L118.049 42.6109V42.6108H117.684ZM117.489 43.0005L117.271 42.7085L117.271 42.7085L117.489 43.0005ZM115.939 44.1577L116.157 44.4498L116.157 44.4497L115.939 44.1577ZM115.358 44.1577L115.14 44.4497L115.14 44.4498L115.358 44.1577ZM113.808 43.0005L114.026 42.7085L114.026 42.7085L113.808 43.0005ZM113.613 42.6108H113.249V42.6109L113.613 42.6108ZM113.486 39.2661L113.487 38.9017H113.486V39.2661ZM113.371 39.3374L113.046 39.173L113.045 39.1735L113.371 39.3374ZM112.026 41.1118L112.286 41.3672L112.286 41.3672L112.026 41.1118ZM109.455 42.7856L109.599 43.1204L109.599 43.1204L109.455 42.7856ZM105.539 43.4751V43.8395V43.8395V43.4751ZM100.967 42.5269L100.811 42.8566L100.814 42.8576L100.967 42.5269ZM97.7058 39.7485L97.4017 39.9493L97.4026 39.9507L97.7058 39.7485ZM96.4988 35.3325H96.1344V35.3325L96.4988 35.3325ZM97.3953 31.6401L97.703 31.8353L97.704 31.8336L97.3953 31.6401ZM99.7937 29.397L99.6205 29.0764L99.6205 29.0764L99.7937 29.397ZM103.106 28.1899L103.184 28.5459L103.187 28.5453L103.106 28.1899ZM106.781 27.5337L106.735 27.1723L106.734 27.1724L106.781 27.5337ZM110.697 27.0679L110.735 27.4303L110.738 27.4299L110.697 27.0679ZM112.906 26.4985L112.728 26.1808L112.724 26.1827L112.906 26.4985ZM112.216 21.0132L111.955 21.2676L111.956 21.2692L112.216 21.0132ZM108.023 19.5981L108.023 19.2338H108.023V19.5981ZM103.451 20.8745L103.228 20.5859V20.5859L103.451 20.8745ZM101.325 23.2065L101.008 23.0269L101.008 23.0269L101.325 23.2065ZM100.705 23.4517L100.582 23.7948L100.582 23.7948L100.705 23.4517ZM97.7439 22.394L97.621 22.7371L97.6213 22.7372L97.7439 22.394ZM97.4705 21.7495L97.1417 21.5923L97.1417 21.5924L97.4705 21.7495ZM100.018 18.4595L100.242 18.7468L100.243 18.7465L100.018 18.4595ZM103.813 16.562L103.905 16.9146L103.907 16.9141L103.813 16.562ZM84.3142 10.0825L84.0626 9.81895L84.0626 9.81896L84.3142 10.0825ZM84.9851 10.0825L85.2366 9.81888L85.2364 9.81864L84.9851 10.0825ZM86.5359 11.562L86.7875 11.2984L86.7874 11.2984L86.5359 11.562ZM86.6863 11.9136H87.0507V11.9133L86.6863 11.9136ZM86.6863 16.355H86.3219V16.7194H86.6863V16.355ZM91.8591 16.355L91.8593 15.9906H91.8591V16.355ZM92.3445 16.8403H92.7089V16.8403L92.3445 16.8403ZM91.8591 19.8052V20.1695H91.8593L91.8591 19.8052ZM86.6863 19.8052V19.4408H86.3219V19.8052H86.6863ZM87.1863 37.8511L86.871 38.0339L86.8755 38.0413L87.1863 37.8511ZM88.4978 38.9897L88.3714 39.3316L88.3804 39.3347L88.4978 38.9897ZM90.2058 39.2661V39.6305H90.2058L90.2058 39.2661ZM91.3093 39.1968L91.3669 39.5569L91.3808 39.5541L91.3093 39.1968ZM91.5349 39.1519L91.4635 38.7946L91.5349 39.1519ZM92.1042 39.521L92.4596 39.4405V39.4405L92.1042 39.521ZM92.7341 42.3032L93.0895 42.2229L93.0895 42.2228L92.7341 42.3032ZM92.4246 42.8462L92.5234 43.1969V43.1969L92.4246 42.8462ZM91.6716 43.0269L91.597 42.6701L91.5891 42.6719L91.6716 43.0269ZM89.7917 43.1997V43.5641H89.7918L89.7917 43.1997ZM86.4099 42.4575L86.2597 42.7895L86.261 42.7901L86.4099 42.4575ZM83.6843 40.1978L83.3864 40.4076L83.3881 40.4099L83.6843 40.1978ZM82.614 36.3677H82.2496V36.3677L82.614 36.3677ZM82.614 19.8052H82.9784V19.4408H82.614V19.8052ZM79.0974 19.8052L79.0973 20.1695H79.0974V19.8052ZM78.6121 16.8403L78.2477 16.8403V16.8403H78.6121ZM79.0974 16.355V15.9906H79.0973L79.0974 16.355ZM82.614 16.355V16.7194H82.9784V16.355H82.614ZM82.614 11.9136L82.2496 11.9133V11.9136H82.614ZM82.7644 11.562L83.016 11.8256L83.016 11.8256L82.7644 11.562ZM57.0271 42.3687L57.3915 42.3688V42.3687H57.0271ZM52.9548 42.3687H52.5905L52.5905 42.3688L52.9548 42.3687ZM63.6804 15.7202L63.4244 15.4609L63.4244 15.4609L63.6804 15.7202ZM64.363 15.7202L64.6191 15.4609L64.6191 15.4609L64.363 15.7202ZM65.8445 17.1831L66.1006 16.9239L66.1005 16.9238L65.8445 17.1831ZM65.988 17.5288H66.3524V17.5285L65.988 17.5288ZM65.988 20.1948H65.6237L65.6237 20.1956L65.988 20.1948ZM66.1511 20.3569L66.1511 20.7213H66.1511V20.3569ZM66.3044 20.2515L66.6437 20.3844L66.6441 20.3834L66.3044 20.2515ZM68.8865 17.1655L68.6889 16.8594L68.6889 16.8594L68.8865 17.1655ZM73.1658 15.9409L73.1658 15.5765H73.1658V15.9409ZM74.2869 15.9575L74.2962 15.5933V15.5933L74.2869 15.9575ZM74.866 15.979L74.8842 15.6151H74.8842L74.866 15.979ZM75.3044 16.4487H75.6688V16.4484L75.3044 16.4487ZM74.6921 20.0435L74.6385 20.4039L74.6386 20.4039L74.6921 20.0435ZM74.3562 19.9946L74.2963 20.3542L74.3058 20.3555L74.3562 19.9946ZM72.8201 19.8745V19.5101H72.8201L72.8201 19.8745ZM69.3699 20.6851L69.5402 21.0072L69.5415 21.0065L69.3699 20.6851ZM66.989 22.8931L66.6796 22.7006L66.679 22.7017L66.989 22.8931ZM66.1267 26.0845L65.7623 26.0844V26.0845H66.1267ZM66.1267 42.3687L66.4911 42.3687V42.3687H66.1267ZM62.0554 42.3687H61.691V42.3687L62.0554 42.3687ZM62.0554 17.5288L61.691 17.5285V17.5288H62.0554ZM62.199 17.1831L61.943 16.9238L61.9429 16.9239L62.199 17.1831ZM112.474 30.105L112.573 30.4559L112.577 30.4546L112.474 30.105ZM110.473 30.5356L110.529 30.8958L110.533 30.8951L110.473 30.5356ZM108.282 30.8462L108.324 31.2082L108.329 31.2076L108.282 30.8462ZM106.574 31.0532L106.621 31.4145L106.622 31.4145L106.574 31.0532ZM103.606 31.7261L103.72 32.0722L103.723 32.0713L103.606 31.7261ZM101.398 33.0894L101.131 32.842L101.13 32.8422L101.398 33.0894ZM100.57 35.5396H100.206V35.5396L100.57 35.5396ZM102.14 38.7485L101.933 39.0481L101.937 39.0507L102.14 38.7485ZM106.16 39.8179V40.1822H106.16L106.16 39.8179ZM110.231 38.8687L110.051 38.5517L110.05 38.5525L110.231 38.8687ZM112.751 36.4194L112.435 36.2379L112.433 36.2406L112.751 36.4194ZM113.613 33.2622L113.977 33.2622V33.2622H113.613ZM134.281 19.6675L134.281 19.3031H134.281V19.6675ZM130.105 20.9263L130.321 21.2199L130.323 21.2185L130.105 20.9263ZM127.552 24.4116L127.892 24.5433L127.893 24.5424L127.552 24.4116ZM126.689 29.604L126.325 29.604V29.604H126.689ZM127.569 34.9009L127.229 35.0313L127.229 35.0322L127.569 34.9009ZM130.14 38.4722L129.919 38.7615L129.921 38.763L130.14 38.4722ZM134.281 39.7485V40.1129H134.281L134.281 39.7485ZM138.542 38.4028L138.767 38.689L138.768 38.6887L138.542 38.4028ZM141.13 34.7456L140.789 34.616L140.789 34.6174L141.13 34.7456ZM142.01 29.604H142.374V29.604L142.01 29.604ZM141.147 24.5669L140.806 24.6946L140.807 24.6977L141.147 24.5669ZM138.577 20.9956L138.353 21.2832L138.356 21.2857L138.577 20.9956ZM54.6199 6.88232L54.3623 6.62459L54.3623 6.62462L54.6199 6.88232ZM55.3064 12.1206L55.564 12.3783L55.564 12.3783L55.3064 12.1206ZM54.6199 12.1206L54.3623 12.3783L54.3624 12.3784L54.6199 12.1206ZM52.3435 9.84521L52.0859 10.1029L52.0859 10.1029L52.3435 9.84521ZM52.3435 9.15771L52.0859 8.90001L52.0858 8.90012L52.3435 9.15771ZM124.312 15.9634L124.568 16.2226C124.616 16.1759 124.691 16.1758 124.739 16.2226L124.995 15.9634L125.251 15.7042C124.92 15.377 124.387 15.3769 124.056 15.7042L124.312 15.9634ZM124.995 15.9634L124.739 16.2226L126.22 17.6855L126.476 17.4263L126.732 17.167L125.251 15.7041L124.995 15.9634ZM126.476 17.4263L126.22 17.6855C126.243 17.7084 126.256 17.7397 126.256 17.772L126.621 17.772L126.985 17.7719C126.985 17.5446 126.894 17.3267 126.732 17.1671L126.476 17.4263ZM126.621 17.772H126.256V20.2515H126.621H126.985V17.772H126.621ZM126.621 20.2515L126.256 20.252C126.257 20.6252 126.559 20.9281 126.933 20.9283L126.933 20.564L126.934 20.1996C126.962 20.1996 126.985 20.223 126.985 20.251L126.621 20.2515ZM126.933 20.564V20.9283C127.162 20.9283 127.375 20.8136 127.501 20.6238L127.197 20.4224L126.893 20.2209C126.902 20.2077 126.917 20.1996 126.933 20.1996V20.564ZM127.197 20.4224L127.501 20.6238C127.786 20.1942 128.164 19.66 128.638 19.0213L128.345 18.8042L128.053 18.5871C127.575 19.2318 127.188 19.777 126.893 20.2209L127.197 20.4224ZM128.345 18.8042L128.638 19.0221C129.141 18.3478 129.869 17.7353 130.837 17.19L130.658 16.8726L130.479 16.5551C129.446 17.137 128.632 17.8114 128.053 18.5863L128.345 18.8042ZM130.658 16.8726L130.838 17.1894C131.775 16.657 133.073 16.3737 134.763 16.3736L134.763 16.0093L134.763 15.6449C133.003 15.6449 131.565 15.9381 130.478 16.5557L130.658 16.8726ZM134.763 16.0093V16.3736C136.931 16.3736 138.827 16.9148 140.464 17.9879L140.664 17.6831L140.864 17.3784C139.096 16.2201 137.059 15.6449 134.763 15.6449V16.0093ZM140.664 17.6831L140.464 17.9879C142.104 19.0624 143.39 20.5885 144.319 22.5812L144.649 22.4272L144.979 22.2733C143.999 20.1716 142.628 18.5351 140.864 17.3784L140.664 17.6831ZM144.649 22.4272L144.319 22.5812C145.246 24.5704 145.716 26.9311 145.716 29.6733L146.081 29.6733L146.445 29.6733C146.445 26.8489 145.961 24.3786 144.979 22.2733L144.649 22.4272ZM146.081 29.6733H145.716C145.716 32.4391 145.246 34.8171 144.319 36.8179L144.649 36.9712L144.98 37.1245C145.961 35.0076 146.445 32.5204 146.445 29.6733H146.081ZM144.649 36.9712L144.319 36.8172C143.389 38.8109 142.108 40.3437 140.479 41.4297L140.681 41.7329L140.884 42.0361C142.636 40.8678 144 39.226 144.979 37.1252L144.649 36.9712ZM140.681 41.7329L140.481 41.4288C138.855 42.5016 136.976 43.0423 134.833 43.0424V43.4067V43.7711C137.106 43.7711 139.126 43.1955 140.882 42.037L140.681 41.7329ZM134.833 43.4067V43.0424C133.166 43.0424 131.87 42.7653 130.92 42.2418L130.744 42.561L130.568 42.8802C131.665 43.4839 133.095 43.7711 134.833 43.7711V43.4067ZM130.744 42.561L130.922 42.2434C129.93 41.686 129.185 41.0663 128.67 40.391L128.381 40.6118L128.091 40.8327C128.68 41.6063 129.511 42.2861 130.565 42.8787L130.744 42.561ZM128.381 40.6118L128.672 40.3932C128.162 39.7131 127.764 39.1465 127.477 38.6924L127.169 38.8872L126.861 39.082C127.162 39.5589 127.573 40.1426 128.089 40.8304L128.381 40.6118ZM127.169 38.8872L127.476 38.6921C127.37 38.5242 127.184 38.4185 126.98 38.4183L126.98 38.7827L126.98 39.1471C126.929 39.1471 126.885 39.1209 126.861 39.0824L127.169 38.8872ZM126.98 38.7827V38.4183C126.657 38.4183 126.394 38.6808 126.394 39.0044H126.759H127.123C127.123 39.0832 127.059 39.1471 126.98 39.1471V38.7827ZM126.759 39.0044H126.394V51.3696H126.759H127.123V39.0044H126.759ZM126.759 51.3696L126.394 51.3694C126.394 51.4029 126.38 51.4349 126.357 51.4576L126.608 51.7212L126.86 51.9848C127.028 51.8242 127.123 51.6017 127.123 51.3698L126.759 51.3696ZM126.608 51.7212L126.357 51.4576L124.807 52.9371L125.058 53.2007L125.31 53.4642L126.86 51.9848L126.608 51.7212ZM125.058 53.2007L124.807 52.9371C124.76 52.9816 124.686 52.9818 124.639 52.9369L124.387 53.2007L124.136 53.4645C124.464 53.7773 124.981 53.7778 125.31 53.4643L125.058 53.2007ZM124.387 53.2007L124.639 52.9371L123.089 51.4576L122.838 51.7212L122.586 51.9848L124.136 53.4642L124.387 53.2007ZM122.838 51.7212L123.089 51.4576C123.065 51.4349 123.052 51.4029 123.052 51.3694L122.687 51.3696L122.323 51.3698C122.323 51.6017 122.418 51.8242 122.586 51.9848L122.838 51.7212ZM122.687 51.3696H123.052V17.772H122.687H122.323V51.3696H122.687ZM122.687 17.772L123.052 17.772C123.052 17.738 123.065 17.7071 123.087 17.6854L122.831 17.4263L122.575 17.1672C122.412 17.3279 122.323 17.5464 122.323 17.7719L122.687 17.772ZM122.831 17.4263L123.087 17.6855L124.568 16.2226L124.312 15.9634L124.056 15.7041L122.575 17.167L122.831 17.4263ZM107.885 16.0093L107.885 16.3736C108.708 16.3737 109.663 16.4739 110.751 16.678L110.818 16.3198L110.885 15.9617C109.766 15.7518 108.765 15.6449 107.886 15.6449L107.885 16.0093ZM110.818 16.3198L110.755 16.6787C111.824 16.866 112.858 17.2582 113.857 17.8579L114.045 17.5454L114.232 17.233C113.161 16.5905 112.044 16.1647 110.881 15.9609L110.818 16.3198ZM114.045 17.5454L113.859 17.8587C114.84 18.4412 115.666 19.3261 116.33 20.5327L116.649 20.3569L116.968 20.1812C116.253 18.881 115.342 17.8917 114.231 17.2321L114.045 17.5454ZM116.649 20.3569L116.33 20.5326C116.98 21.713 117.32 23.3248 117.32 25.395H117.684H118.049C118.049 23.2557 117.699 21.5082 116.968 20.1812L116.649 20.3569ZM117.684 25.395H117.32V42.6108H117.684H118.049V25.395H117.684ZM117.684 42.6108L117.32 42.6108C117.32 42.6492 117.302 42.6856 117.271 42.7085L117.489 43.0005L117.707 43.2925C117.922 43.1319 118.049 42.879 118.049 42.6109L117.684 42.6108ZM117.489 43.0005L117.271 42.7085L115.721 43.8658L115.939 44.1577L116.157 44.4497L117.707 43.2924L117.489 43.0005ZM115.939 44.1577L115.721 43.8656C115.678 43.8977 115.619 43.8977 115.576 43.8656L115.358 44.1577L115.14 44.4498C115.442 44.6747 115.856 44.6746 116.157 44.4498L115.939 44.1577ZM115.358 44.1577L115.576 43.8658L114.026 42.7085L113.808 43.0005L113.59 43.2924L115.14 44.4497L115.358 44.1577ZM113.808 43.0005L114.026 42.7085C113.996 42.6856 113.977 42.6492 113.977 42.6108L113.613 42.6108L113.249 42.6109C113.249 42.879 113.375 43.1319 113.59 43.2925L113.808 43.0005ZM113.613 42.6108H113.977V39.3931H113.613H113.249V42.6108H113.613ZM113.613 39.3931H113.977C113.977 39.1211 113.757 38.9022 113.487 38.9017L113.486 39.2661L113.485 39.6305C113.355 39.6302 113.249 39.5249 113.249 39.3931H113.613ZM113.486 39.2661V38.9017C113.298 38.9017 113.129 39.0088 113.046 39.173L113.371 39.3374L113.696 39.5018C113.657 39.5789 113.577 39.6305 113.486 39.6305V39.2661ZM113.371 39.3374L113.045 39.1735C112.789 39.6834 112.367 40.2448 111.766 40.8565L112.026 41.1118L112.286 41.3672C112.92 40.7222 113.395 40.1002 113.696 39.5013L113.371 39.3374ZM112.026 41.1118L111.766 40.8565C111.163 41.4706 110.348 42.0047 109.311 42.4509L109.455 42.7856L109.599 43.1204C110.701 42.6464 111.601 42.0642 112.286 41.3672L112.026 41.1118ZM109.455 42.7856L109.311 42.4509C108.299 42.8861 107.046 43.1107 105.539 43.1107V43.4751V43.8395C107.114 43.8395 108.472 43.6052 109.599 43.1204L109.455 42.7856ZM105.539 43.4751V43.1107C103.906 43.1107 102.435 42.8041 101.119 42.1961L100.967 42.5269L100.814 42.8576C102.236 43.5148 103.813 43.8395 105.539 43.8395V43.4751ZM100.967 42.5269L101.122 42.1972C99.8105 41.5801 98.7757 40.6965 98.009 39.5464L97.7058 39.7485L97.4026 39.9507C98.2461 41.2158 99.3853 42.1854 100.811 42.8565L100.967 42.5269ZM97.7058 39.7485L98.0099 39.5478C97.251 38.3984 96.8632 36.9993 96.8632 35.3325L96.4988 35.3325L96.1344 35.3325C96.1344 37.1156 96.5508 38.6605 97.4017 39.9493L97.7058 39.7485ZM96.4988 35.3325H96.8632C96.8632 33.8592 97.153 32.7025 97.703 31.8353L97.3953 31.6401L97.0875 31.445C96.4414 32.464 96.1344 33.7694 96.1344 35.3325H96.4988ZM97.3953 31.6401L97.704 31.8336C98.2683 30.9329 99.0211 30.2285 99.9669 29.7176L99.7937 29.397L99.6205 29.0764C98.565 29.6466 97.7184 30.4381 97.0865 31.4467L97.3953 31.6401ZM99.7937 29.397L99.9669 29.7176C100.935 29.1946 102.007 28.8038 103.184 28.5459L103.106 28.1899L103.028 27.834C101.79 28.1052 100.654 28.5183 99.6205 29.0764L99.7937 29.397ZM103.106 28.1899L103.187 28.5453C104.395 28.2717 105.609 28.0545 106.828 27.895L106.781 27.5337L106.734 27.1724C105.492 27.3349 104.256 27.5561 103.026 27.8346L103.106 28.1899ZM106.781 27.5337L106.827 27.8951C108.436 27.6883 109.738 27.5334 110.735 27.4303L110.697 27.0679L110.66 26.7054C109.655 26.8094 108.346 26.9651 106.735 27.1723L106.781 27.5337ZM110.697 27.0679L110.738 27.4299C111.763 27.3135 112.561 27.1174 113.088 26.8144L112.906 26.4985L112.724 26.1827C112.331 26.4088 111.656 26.5922 110.656 26.7058L110.697 27.0679ZM112.906 26.4985L113.084 26.8162C113.697 26.4725 113.977 25.8727 113.977 25.1187H113.613H113.249C113.249 25.6753 113.058 25.9954 112.728 26.1808L112.906 26.4985ZM113.613 25.1187H113.977V24.981H113.613H113.249V25.1187H113.613ZM113.613 24.981H113.977C113.977 23.2114 113.491 21.7863 112.475 20.7571L112.216 21.0132L111.956 21.2692C112.803 22.1263 113.249 23.3463 113.249 24.981H113.613ZM112.216 21.0132L112.476 20.7587C111.463 19.7201 109.954 19.2338 108.023 19.2338L108.023 19.5981L108.023 19.9625C109.842 19.9625 111.128 20.42 111.955 21.2676L112.216 21.0132ZM108.023 19.5981V19.2338C106.03 19.2338 104.417 19.6695 103.228 20.5859L103.451 20.8745L103.673 21.1631C104.693 20.3773 106.129 19.9625 108.023 19.9625V19.5981ZM103.451 20.8745L103.228 20.5859C102.247 21.3422 101.502 22.1547 101.008 23.0269L101.325 23.2065L101.642 23.3862C102.077 22.6182 102.749 21.8757 103.673 21.1631L103.451 20.8745ZM101.325 23.2065L101.008 23.0269C100.962 23.1071 100.88 23.1274 100.827 23.1085L100.705 23.4517L100.582 23.7948C101.002 23.9446 101.44 23.7428 101.642 23.3861L101.325 23.2065ZM100.705 23.4517L100.827 23.1085L97.8665 22.0509L97.7439 22.394L97.6213 22.7372L100.582 23.7948L100.705 23.4517ZM97.7439 22.394L97.8668 22.051C97.7965 22.0258 97.7762 21.9549 97.7992 21.9066L97.4705 21.7495L97.1417 21.5924C96.9234 22.0493 97.1643 22.5735 97.621 22.7371L97.7439 22.394ZM97.4705 21.7495L97.7992 21.9067C98.4415 20.5634 99.2583 19.5144 100.242 18.7468L100.018 18.4595L99.7942 18.1722C98.7073 19.0199 97.8246 20.1642 97.1417 21.5923L97.4705 21.7495ZM100.018 18.4595L100.243 18.7465C101.367 17.8674 102.587 17.2581 103.905 16.9146L103.813 16.562L103.721 16.2094C102.303 16.5791 100.993 17.2346 99.7938 18.1725L100.018 18.4595ZM103.813 16.562L103.907 16.9141C105.259 16.5536 106.585 16.3736 107.885 16.3736V16.0093V15.6449C106.517 15.6449 105.128 15.8343 103.719 16.2099L103.813 16.562ZM84.3142 10.0825L84.5658 10.3461C84.6123 10.3017 84.6865 10.3013 84.7338 10.3464L84.9851 10.0825L85.2364 9.81864C84.9082 9.50618 84.3913 9.50517 84.0626 9.81895L84.3142 10.0825ZM84.9851 10.0825L84.7336 10.3462L86.2844 11.8257L86.5359 11.562L86.7874 11.2984L85.2366 9.81888L84.9851 10.0825ZM86.5359 11.562L86.2843 11.8256C86.308 11.8482 86.3219 11.8803 86.3219 11.9138L86.6863 11.9136L87.0507 11.9133C87.0505 11.6815 86.9557 11.459 86.7875 11.2984L86.5359 11.562ZM86.6863 11.9136H86.3219V16.355H86.6863H87.0507V11.9136H86.6863ZM86.6863 16.355V16.7194H91.8591V16.355V15.9906H86.6863V16.355ZM91.8591 16.355L91.859 16.7194C91.9262 16.7194 91.9801 16.7735 91.9801 16.8403L92.3445 16.8403L92.7089 16.8403C92.7088 16.3707 92.3285 15.9908 91.8593 15.9906L91.8591 16.355ZM92.3445 16.8403H91.9801V19.3188H92.3445H92.7089V16.8403H92.3445ZM92.3445 19.3188H91.9801C91.9801 19.3866 91.9253 19.4408 91.859 19.4408L91.8591 19.8052L91.8593 20.1695C92.3294 20.1693 92.7089 19.7875 92.7089 19.3188H92.3445ZM91.8591 19.8052V19.4408H86.6863V19.8052V20.1695H91.8591V19.8052ZM86.6863 19.8052H86.3219V35.2632H86.6863H87.0507V19.8052H86.6863ZM86.6863 35.2632H86.3219C86.3219 36.4365 86.4896 37.3761 86.8711 38.0339L87.1863 37.8511L87.5015 37.6683C87.2159 37.1758 87.0507 36.3902 87.0507 35.2632H86.6863ZM87.1863 37.8511L86.8755 38.0413C87.2557 38.6623 87.7531 39.103 88.3715 39.3315L88.4978 38.9897L88.6241 38.648C88.1844 38.4855 87.8069 38.167 87.497 37.6608L87.1863 37.8511ZM88.4978 38.9897L88.3804 39.3347C88.9603 39.5321 89.5696 39.6305 90.2058 39.6305V39.2661V38.9017C89.646 38.9017 89.1163 38.8153 88.6152 38.6448L88.4978 38.9897ZM90.2058 39.2661L90.2058 39.6305C90.6645 39.6305 91.0533 39.6067 91.3669 39.5566L91.3093 39.1968L91.2518 38.837C90.9905 38.8788 90.6436 38.9017 90.2058 38.9017L90.2058 39.2661ZM91.3093 39.1968L91.3808 39.5541C91.4203 39.5462 91.4588 39.5385 91.4964 39.531C91.534 39.5236 91.5708 39.5163 91.6064 39.5092L91.5349 39.1519L91.4635 38.7946C91.4284 38.8016 91.3921 38.8088 91.3544 38.8163C91.3168 38.8237 91.2779 38.8315 91.2379 38.8395L91.3093 39.1968ZM91.5349 39.1519L91.6064 39.5092C91.6711 39.4962 91.7344 39.5373 91.7489 39.6015L92.1042 39.521L92.4596 39.4405C92.3578 38.9906 91.9156 38.7041 91.4635 38.7946L91.5349 39.1519ZM92.1042 39.521L91.7489 39.6015L92.3788 42.3837L92.7341 42.3032L93.0895 42.2228L92.4596 39.4405L92.1042 39.521ZM92.7341 42.3032L92.3787 42.3835C92.3856 42.4141 92.38 42.4413 92.3692 42.4607C92.359 42.4788 92.3447 42.4901 92.3257 42.4955L92.4246 42.8462L92.5234 43.1969C92.9602 43.0738 93.1818 42.6314 93.0895 42.2229L92.7341 42.3032ZM92.4246 42.8462L92.3257 42.4955C92.1221 42.5529 91.8794 42.6111 91.597 42.6702L91.6716 43.0269L91.7463 43.3835C92.0397 43.3221 92.2993 43.26 92.5234 43.1969L92.4246 42.8462ZM91.6716 43.0269L91.5891 42.6719C91.1314 42.7784 90.5348 42.8353 89.7917 42.8353L89.7917 43.1997L89.7918 43.5641C90.5663 43.5641 91.223 43.5053 91.7541 43.3818L91.6716 43.0269ZM89.7917 43.1997V42.8353C88.6956 42.8353 87.6187 42.5997 86.5589 42.125L86.4099 42.4575L86.261 42.7901C87.4094 43.3045 88.5875 43.5641 89.7917 43.5641V43.1997ZM86.4099 42.4575L86.5602 42.1256C85.5283 41.6585 84.6693 40.9476 83.9806 39.9856L83.6843 40.1978L83.3881 40.4099C84.1484 41.4719 85.1065 42.2675 86.2597 42.7895L86.4099 42.4575ZM83.6843 40.1978L83.9822 39.9879C83.3219 39.0508 82.9784 37.8521 82.9784 36.3677L82.614 36.3677L82.2496 36.3677C82.2497 37.9655 82.6206 39.3206 83.3865 40.4076L83.6843 40.1978ZM82.614 36.3677H82.9784V19.8052H82.614H82.2496V36.3677H82.614ZM82.614 19.8052V19.4408H79.0974V19.8052V20.1695H82.614V19.8052ZM79.0974 19.8052L79.0975 19.4408C79.0313 19.4408 78.9764 19.3867 78.9764 19.3188H78.6121H78.2477C78.2477 19.7875 78.6271 20.1694 79.0973 20.1695L79.0974 19.8052ZM78.6121 19.3188H78.9764V16.8403H78.6121H78.2477V19.3188H78.6121ZM78.6121 16.8403L78.9764 16.8403C78.9764 16.7734 79.0303 16.7194 79.0975 16.7194L79.0974 16.355L79.0973 15.9906C78.628 15.9908 78.2477 16.3707 78.2477 16.8403L78.6121 16.8403ZM79.0974 16.355V16.7194H82.614V16.355V15.9906H79.0974V16.355ZM82.614 16.355H82.9784V11.9136H82.614H82.2496V16.355H82.614ZM82.614 11.9136L82.9784 11.9138C82.9784 11.8803 82.9922 11.8482 83.016 11.8256L82.7644 11.562L82.5128 11.2984C82.3446 11.459 82.2498 11.6815 82.2496 11.9133L82.614 11.9136ZM82.7644 11.562L83.016 11.8256L84.5658 10.3461L84.3142 10.0825L84.0626 9.81896L82.5128 11.2985L82.7644 11.562ZM56.5408 16.354V16.7184C56.6079 16.7184 56.6627 16.7733 56.6627 16.8403H57.0271H57.3915C57.3915 16.3708 57.0103 15.9896 56.5408 15.9896V16.354ZM57.0271 16.8403H56.6627V42.3687H57.0271H57.3915V16.8403H57.0271ZM57.0271 42.3687L56.6627 42.3685C56.6627 42.4348 56.6086 42.4896 56.5408 42.4896V42.854V43.2184C57.0095 43.2184 57.3913 42.8389 57.3915 42.3688L57.0271 42.3687ZM56.5408 42.854V42.4896H53.4412V42.854V43.2184H56.5408V42.854ZM53.4412 42.854V42.4896C53.3734 42.4896 53.3192 42.4348 53.3192 42.3685L52.9548 42.3687L52.5905 42.3688C52.5907 42.8389 52.9725 43.2184 53.4412 43.2184V42.854ZM52.9548 42.3687H53.3192V16.8403H52.9548H52.5905V42.3687H52.9548ZM52.9548 16.8403H53.3192C53.3192 16.7733 53.3741 16.7184 53.4412 16.7184V16.354V15.9896C52.9716 15.9896 52.5905 16.3708 52.5905 16.8403H52.9548ZM53.4412 16.354V16.7184H56.5408V16.354V15.9896H53.4412V16.354ZM63.6804 15.7202L63.9364 15.9795C63.9837 15.9328 64.0597 15.9328 64.107 15.9795L64.363 15.7202L64.6191 15.4609C64.2879 15.134 63.7555 15.134 63.4244 15.4609L63.6804 15.7202ZM64.363 15.7202L64.107 15.9795L65.5885 17.4424L65.8445 17.1831L66.1005 16.9238L64.6191 15.4609L64.363 15.7202ZM65.8445 17.1831L65.5884 17.4423C65.6101 17.4638 65.6236 17.4947 65.6237 17.5291L65.988 17.5288L66.3524 17.5285C66.3522 17.3034 66.2634 17.0848 66.1006 16.9239L65.8445 17.1831ZM65.988 17.5288H65.6237V20.1948H65.988H66.3524V17.5288H65.988ZM65.988 20.1948L65.6237 20.1956C65.6243 20.488 65.8623 20.7213 66.1511 20.7213L66.1511 20.3569L66.1512 19.9926C66.2605 19.9926 66.3522 20.0809 66.3524 20.1941L65.988 20.1948ZM66.1511 20.3569V20.7213C66.3723 20.7213 66.5654 20.5841 66.6437 20.3844L66.3044 20.2515L65.9652 20.1185C65.9939 20.0453 66.0658 19.9926 66.1511 19.9926V20.3569ZM66.3044 20.2515L66.6441 20.3834C67.1045 19.1984 67.9124 18.228 69.0841 17.4717L68.8865 17.1655L68.6889 16.8594C67.3992 17.6919 66.4855 18.7796 65.9648 20.1195L66.3044 20.2515ZM68.8865 17.1655L69.0841 17.4717C70.287 16.6952 71.6446 16.3053 73.1658 16.3053V15.9409V15.5765C71.5125 15.5765 70.0163 16.0026 68.6889 16.8594L68.8865 17.1655ZM73.1658 15.9409L73.1658 16.3053C73.4609 16.3053 73.8314 16.3103 74.2775 16.3218L74.2869 15.9575L74.2962 15.5933C73.8456 15.5817 73.4686 15.5765 73.1658 15.5765L73.1658 15.9409ZM74.2869 15.9575L74.2775 16.3218C74.4938 16.3273 74.6839 16.3347 74.8477 16.3429L74.866 15.979L74.8842 15.6151C74.7141 15.6066 74.5181 15.599 74.2962 15.5933L74.2869 15.9575ZM74.866 15.979L74.8477 16.3429C74.894 16.3452 74.94 16.3844 74.9401 16.4491L75.3044 16.4487L75.6688 16.4484C75.6684 16.0142 75.3362 15.6377 74.8842 15.6151L74.866 15.979ZM75.3044 16.4487H74.9401V19.5278H75.3044H75.6688V16.4487H75.3044ZM75.3044 19.5278H74.9401C74.9401 19.5667 74.922 19.6085 74.8819 19.6419C74.8413 19.6758 74.7911 19.6898 74.7457 19.683L74.6921 20.0435L74.6386 20.4039C75.1596 20.4813 75.6688 20.0781 75.6688 19.5278H75.3044ZM74.6921 20.0435L74.7458 19.6831C74.6449 19.668 74.5314 19.6512 74.4066 19.6338L74.3562 19.9946L74.3058 20.3555C74.427 20.3724 74.5375 20.3888 74.6385 20.4039L74.6921 20.0435ZM74.3562 19.9946L74.4161 19.6352C73.911 19.551 73.3783 19.5101 72.8201 19.5101V19.8745V20.2389C73.343 20.2389 73.8353 20.2772 74.2963 20.354L74.3562 19.9946ZM72.8201 19.8745L72.8201 19.5101C71.4797 19.5102 70.2693 19.7916 69.1982 20.3637L69.3699 20.6851L69.5415 21.0065C70.4945 20.4975 71.5844 20.2389 72.8201 20.2389L72.8201 19.8745ZM69.3699 20.6851L69.1996 20.3629C68.1432 20.9215 67.3009 21.7017 66.6796 22.7006L66.989 22.8931L67.2984 23.0855C67.8502 22.1984 68.5955 21.5067 69.5402 21.0072L69.3699 20.6851ZM66.989 22.8931L66.679 22.7017C66.0652 23.696 65.7624 24.8274 65.7623 26.0844L66.1267 26.0845L66.4911 26.0845C66.4912 24.9496 66.7629 23.9531 67.2991 23.0845L66.989 22.8931ZM66.1267 26.0845H65.7623V42.3687H66.1267H66.4911V26.0845H66.1267ZM66.1267 42.3687L65.7623 42.3686C65.7623 42.4348 65.7083 42.4896 65.6404 42.4896V42.854V43.2184C66.109 43.2184 66.491 42.839 66.4911 42.3687L66.1267 42.3687ZM65.6404 42.854V42.4896H62.5408V42.854V43.2184H65.6404V42.854ZM62.5408 42.854V42.4896C62.4738 42.4896 62.4198 42.4357 62.4198 42.3686L62.0554 42.3687L61.691 42.3687C61.6912 42.8381 62.0712 43.2184 62.5408 43.2184V42.854ZM62.0554 42.3687H62.4198V17.5288H62.0554H61.691V42.3687H62.0554ZM62.0554 17.5288L62.4198 17.5291C62.4198 17.4947 62.4334 17.4638 62.4551 17.4423L62.199 17.1831L61.9429 16.9239C61.78 17.0848 61.6912 17.3034 61.691 17.5285L62.0554 17.5288ZM62.199 17.1831L62.455 17.4424L63.9364 15.9795L63.6804 15.7202L63.4244 15.4609L61.943 16.9238L62.199 17.1831ZM113.613 30.8237H113.977C113.977 30.4114 113.658 30.1054 113.389 29.9429C113.112 29.7752 112.718 29.6535 112.372 29.7554L112.474 30.105L112.577 30.4546C112.649 30.4334 112.825 30.4531 113.012 30.5664C113.208 30.685 113.249 30.7998 113.249 30.8237H113.613ZM112.474 30.105L112.376 29.7541C111.817 29.9107 111.163 30.0513 110.413 30.1762L110.473 30.5356L110.533 30.8951C111.301 30.767 111.982 30.6213 112.573 30.4559L112.474 30.105ZM110.473 30.5356L110.418 30.1755C109.673 30.2901 108.945 30.3932 108.235 30.4848L108.282 30.8462L108.329 31.2076C109.045 31.1152 109.778 31.0112 110.529 30.8958L110.473 30.5356ZM108.282 30.8462L108.24 30.4842C107.538 30.5648 106.966 30.6341 106.526 30.692L106.574 31.0532L106.622 31.4145C107.056 31.3573 107.623 31.2886 108.324 31.2082L108.282 30.8462ZM106.574 31.0532L106.527 30.6919C105.447 30.8327 104.434 31.062 103.49 31.3808L103.606 31.7261L103.723 32.0713C104.618 31.7691 105.584 31.5498 106.621 31.4145L106.574 31.0532ZM103.606 31.7261L103.492 31.38C102.534 31.6954 101.742 32.1806 101.131 32.842L101.398 33.0894L101.666 33.3367C102.181 32.779 102.861 32.3548 103.72 32.0722L103.606 31.7261ZM101.398 33.0894L101.13 32.8422C100.501 33.5245 100.206 34.4387 100.206 35.5396H100.57H100.934C100.934 34.5701 101.192 33.8504 101.666 33.3365L101.398 33.0894ZM100.57 35.5396L100.206 35.5396C100.206 37.0582 100.776 38.2471 101.933 39.0481L102.14 38.7485L102.348 38.449C101.412 37.8008 100.934 36.8501 100.934 35.5395L100.57 35.5396ZM102.14 38.7485L101.937 39.0507C103.069 39.8139 104.485 40.1822 106.16 40.1822V39.8179V39.4535C104.591 39.4535 103.327 39.109 102.344 38.4464L102.14 38.7485ZM106.16 39.8179L106.16 40.1822C107.817 40.1822 109.24 39.8563 110.412 39.1848L110.231 38.8687L110.05 38.5525C109.014 39.1462 107.723 39.4535 106.16 39.4535L106.16 39.8179ZM110.231 38.8687L110.411 39.1856C111.577 38.5244 112.468 37.6633 113.068 36.5982L112.751 36.4194L112.433 36.2406C111.906 37.1768 111.117 37.9478 110.051 38.5517L110.231 38.8687ZM112.751 36.4194L113.067 36.601C113.672 35.5477 113.977 34.4329 113.977 33.2622L113.613 33.2622L113.249 33.2622C113.249 34.2997 112.98 35.29 112.435 36.2379L112.751 36.4194ZM113.613 33.2622H113.977V30.8237H113.613H113.249V33.2622H113.613ZM134.281 19.6675V19.3031C132.561 19.3031 131.088 19.7395 129.888 20.6341L130.105 20.9263L130.323 21.2185C131.376 20.4337 132.689 20.0319 134.281 20.0319V19.6675ZM130.105 20.9263L129.889 20.6326C128.698 21.5078 127.809 22.7304 127.212 24.2808L127.552 24.4116L127.893 24.5424C128.446 23.1025 129.258 22.0009 130.321 21.2199L130.105 20.9263ZM127.552 24.4116L127.213 24.2799C126.618 25.8143 126.325 27.5913 126.325 29.604L126.689 29.604L127.054 29.604C127.054 27.6605 127.337 25.9762 127.892 24.5433L127.552 24.4116ZM126.689 29.604H126.325C126.325 31.6402 126.623 33.4519 127.229 35.0313L127.569 34.9009L127.909 34.7704C127.342 33.2905 127.054 31.5702 127.054 29.604H126.689ZM127.569 34.9009L127.229 35.0322C127.836 36.6037 128.731 37.8525 129.919 38.7615L130.14 38.4722L130.362 38.1828C129.295 37.3666 128.475 36.2345 127.909 34.7696L127.569 34.9009ZM130.14 38.4722L129.921 38.763C131.121 39.669 132.582 40.1129 134.281 40.1129V39.7485V39.3842C132.714 39.3842 131.414 38.9774 130.36 38.1814L130.14 38.4722ZM134.281 39.7485L134.281 40.1129C136.05 40.1128 137.554 39.6452 138.767 38.689L138.542 38.4028L138.316 38.1166C137.253 38.9546 135.916 39.3841 134.281 39.3842L134.281 39.7485ZM138.542 38.4028L138.768 38.6887C139.976 37.7344 140.875 36.4583 141.471 34.8738L141.13 34.7456L140.789 34.6174C140.234 36.0923 139.408 37.254 138.316 38.1169L138.542 38.4028ZM141.13 34.7456L141.47 34.8752C142.075 33.2871 142.374 31.5283 142.374 29.604H142.01H141.645C141.645 31.4523 141.358 33.1217 140.789 34.616L141.13 34.7456ZM142.01 29.604L142.374 29.604C142.374 27.7035 142.081 25.9791 141.487 24.4361L141.147 24.5669L140.807 24.6977C141.364 26.1448 141.645 27.7785 141.645 29.604L142.01 29.604ZM141.147 24.5669L141.488 24.4392C140.904 22.8758 140.008 21.6259 138.797 20.7055L138.577 20.9956L138.356 21.2857C139.445 22.1135 140.264 23.2449 140.806 24.6945L141.147 24.5669ZM138.577 20.9956L138.801 20.708C137.586 19.7634 136.071 19.3032 134.281 19.3031L134.281 19.6675L134.281 20.0319C135.942 20.0319 137.29 20.4567 138.353 21.2832L138.577 20.9956ZM54.6199 6.88232L54.8774 7.14005C54.925 7.09255 55.0014 7.09266 55.0487 7.13997L55.3064 6.88232L55.564 6.62467C55.232 6.29261 54.6942 6.29286 54.3623 6.62459L54.6199 6.88232ZM55.3064 6.88232L55.0487 7.13997L57.3241 9.41536L57.5818 9.15771L57.8394 8.90006L55.564 6.62467L55.3064 6.88232ZM57.5818 9.15771L57.3241 9.41536C57.3716 9.4628 57.3716 9.54013 57.3241 9.58756L57.5818 9.84521L57.8394 10.1029C58.1715 9.77084 58.1715 9.23209 57.8394 8.90006L57.5818 9.15771ZM57.5818 9.84521L57.3241 9.58756L55.0487 11.863L55.3064 12.1206L55.564 12.3783L57.8394 10.1029L57.5818 9.84521ZM55.3064 12.1206L55.0488 11.8629C55.0016 11.9101 54.9249 11.9103 54.8773 11.8628L54.6199 12.1206L54.3624 12.3784C54.6943 12.7098 55.2319 12.7102 55.564 12.3783L55.3064 12.1206ZM54.6199 12.1206L54.8775 11.8629L52.6011 9.58751L52.3435 9.84521L52.0859 10.1029L54.3623 12.3783L54.6199 12.1206ZM52.3435 9.84521L52.6012 9.58756C52.5538 9.54021 52.5537 9.46282 52.6012 9.41531L52.3435 9.15771L52.0858 8.90012C51.754 9.23208 51.7538 9.77081 52.0859 10.1029L52.3435 9.84521ZM52.3435 9.15771L52.6011 9.41542L54.8775 7.14003L54.6199 6.88232L54.3623 6.62462L52.0859 8.90001L52.3435 9.15771Z" fill="#7C3AED" mask="url(#path-2-outside-1_21824_140980)"/>
</svg>
